<mxfile host="app.diagrams.net" modified="2022-04-25T07:07:26.936Z" agent="5.0 (Macintosh; Intel Mac OS X 10_15_7) AppleWebKit/537.36 (KHTML, like Gecko) Chrome/100.0.4896.127 Safari/537.36" etag="7jm6y0GBSdw_Lv1IuYYh" version="17.4.5" type="github">
  <diagram id="C5RBs43oDa-KdzZeNtuy" name="Page-1">
    <mxGraphModel dx="1310" dy="727" grid="1" gridSize="10" guides="1" tooltips="1" connect="1" arrows="1" fold="1" page="1" pageScale="1" pageWidth="827" pageHeight="1169" math="0" shadow="0">
      <root>
        <mxCell id="WIyWlLk6GJQsqaUBKTNV-0" />
        <mxCell id="WIyWlLk6GJQsqaUBKTNV-1" parent="WIyWlLk6GJQsqaUBKTNV-0" />
        <mxCell id="5dzbz2AhqvXr-jBQKXv9-0" value="" style="edgeStyle=orthogonalEdgeStyle;rounded=0;orthogonalLoop=1;jettySize=auto;html=1;startArrow=none;startFill=0;endArrow=block;endFill=0;entryX=0.5;entryY=0;entryDx=0;entryDy=0;" edge="1" parent="WIyWlLk6GJQsqaUBKTNV-1" source="5dzbz2AhqvXr-jBQKXv9-1" target="5dzbz2AhqvXr-jBQKXv9-5">
          <mxGeometry relative="1" as="geometry">
            <mxPoint x="179" y="280" as="targetPoint" />
          </mxGeometry>
        </mxCell>
        <mxCell id="5dzbz2AhqvXr-jBQKXv9-1" value="读取ip地址表" style="rounded=1;whiteSpace=wrap;html=1;fontSize=12;glass=0;strokeWidth=1;shadow=0;" vertex="1" parent="WIyWlLk6GJQsqaUBKTNV-1">
          <mxGeometry x="119" y="160" width="120" height="40" as="geometry" />
        </mxCell>
        <mxCell id="5dzbz2AhqvXr-jBQKXv9-2" value="No" style="edgeStyle=orthogonalEdgeStyle;rounded=0;html=1;jettySize=auto;orthogonalLoop=1;fontSize=11;endArrow=block;endFill=0;endSize=8;strokeWidth=1;shadow=0;labelBackgroundColor=none;entryX=0;entryY=0.5;entryDx=0;entryDy=0;" edge="1" parent="WIyWlLk6GJQsqaUBKTNV-1" source="5dzbz2AhqvXr-jBQKXv9-5" target="5dzbz2AhqvXr-jBQKXv9-43">
          <mxGeometry x="-0.4313" y="-9" relative="1" as="geometry">
            <mxPoint as="offset" />
            <Array as="points">
              <mxPoint x="179" y="860" />
            </Array>
          </mxGeometry>
        </mxCell>
        <mxCell id="5dzbz2AhqvXr-jBQKXv9-3" value="" style="edgeStyle=orthogonalEdgeStyle;rounded=0;orthogonalLoop=1;jettySize=auto;html=1;fontSize=12;endArrow=block;endFill=0;" edge="1" parent="WIyWlLk6GJQsqaUBKTNV-1" source="5dzbz2AhqvXr-jBQKXv9-5" target="5dzbz2AhqvXr-jBQKXv9-48">
          <mxGeometry relative="1" as="geometry" />
        </mxCell>
        <mxCell id="5dzbz2AhqvXr-jBQKXv9-4" value="Yes" style="edgeLabel;html=1;align=center;verticalAlign=middle;resizable=0;points=[];fontSize=12;" vertex="1" connectable="0" parent="5dzbz2AhqvXr-jBQKXv9-3">
          <mxGeometry x="-0.4376" y="2" relative="1" as="geometry">
            <mxPoint x="14" y="-8" as="offset" />
          </mxGeometry>
        </mxCell>
        <mxCell id="5dzbz2AhqvXr-jBQKXv9-5" value="&lt;span style=&quot;text-align: left&quot;&gt;查询IP是否有告警历史&lt;/span&gt;" style="rhombus;whiteSpace=wrap;html=1;shadow=0;fontFamily=Helvetica;fontSize=12;align=center;strokeWidth=1;spacing=6;spacingTop=-4;" vertex="1" parent="WIyWlLk6GJQsqaUBKTNV-1">
          <mxGeometry x="129" y="400" width="100" height="80" as="geometry" />
        </mxCell>
        <mxCell id="5dzbz2AhqvXr-jBQKXv9-6" style="edgeStyle=orthogonalEdgeStyle;rounded=0;orthogonalLoop=1;jettySize=auto;html=1;entryX=0.5;entryY=0;entryDx=0;entryDy=0;endArrow=block;endFill=0;" edge="1" parent="WIyWlLk6GJQsqaUBKTNV-1" source="5dzbz2AhqvXr-jBQKXv9-8" target="5dzbz2AhqvXr-jBQKXv9-1">
          <mxGeometry relative="1" as="geometry">
            <Array as="points">
              <mxPoint x="320" y="120" />
              <mxPoint x="179" y="120" />
            </Array>
          </mxGeometry>
        </mxCell>
        <mxCell id="5dzbz2AhqvXr-jBQKXv9-7" value="" style="edgeStyle=orthogonalEdgeStyle;rounded=0;orthogonalLoop=1;jettySize=auto;html=1;startArrow=none;startFill=0;endArrow=block;endFill=0;" edge="1" parent="WIyWlLk6GJQsqaUBKTNV-1" source="5dzbz2AhqvXr-jBQKXv9-8" target="5dzbz2AhqvXr-jBQKXv9-12">
          <mxGeometry relative="1" as="geometry">
            <Array as="points">
              <mxPoint x="360" y="120" />
              <mxPoint x="500" y="120" />
            </Array>
          </mxGeometry>
        </mxCell>
        <mxCell id="5dzbz2AhqvXr-jBQKXv9-8" value="执行代码" style="rounded=1;whiteSpace=wrap;html=1;fontSize=12;glass=0;strokeWidth=1;shadow=0;" vertex="1" parent="WIyWlLk6GJQsqaUBKTNV-1">
          <mxGeometry x="280" y="40" width="120" height="40" as="geometry" />
        </mxCell>
        <mxCell id="5dzbz2AhqvXr-jBQKXv9-9" style="edgeStyle=orthogonalEdgeStyle;rounded=0;orthogonalLoop=1;jettySize=auto;html=1;entryX=0.5;entryY=0;entryDx=0;entryDy=0;startArrow=none;startFill=0;endArrow=block;endFill=0;" edge="1" parent="WIyWlLk6GJQsqaUBKTNV-1" source="5dzbz2AhqvXr-jBQKXv9-12" target="5dzbz2AhqvXr-jBQKXv9-21">
          <mxGeometry relative="1" as="geometry">
            <Array as="points">
              <mxPoint x="500" y="370" />
              <mxPoint x="500" y="370" />
            </Array>
          </mxGeometry>
        </mxCell>
        <mxCell id="5dzbz2AhqvXr-jBQKXv9-10" style="edgeStyle=orthogonalEdgeStyle;rounded=0;orthogonalLoop=1;jettySize=auto;html=1;entryX=0.5;entryY=0;entryDx=0;entryDy=0;fontSize=12;endArrow=block;endFill=0;" edge="1" parent="WIyWlLk6GJQsqaUBKTNV-1" source="5dzbz2AhqvXr-jBQKXv9-12" target="5dzbz2AhqvXr-jBQKXv9-48">
          <mxGeometry relative="1" as="geometry" />
        </mxCell>
        <mxCell id="5dzbz2AhqvXr-jBQKXv9-11" value="生成当前告警信息" style="edgeLabel;html=1;align=center;verticalAlign=middle;resizable=0;points=[];fontSize=12;" vertex="1" connectable="0" parent="5dzbz2AhqvXr-jBQKXv9-10">
          <mxGeometry x="0.0144" y="2" relative="1" as="geometry">
            <mxPoint as="offset" />
          </mxGeometry>
        </mxCell>
        <mxCell id="5dzbz2AhqvXr-jBQKXv9-12" value="获取所有虚拟机告警" style="rounded=1;whiteSpace=wrap;html=1;fontSize=12;glass=0;strokeWidth=1;shadow=0;" vertex="1" parent="WIyWlLk6GJQsqaUBKTNV-1">
          <mxGeometry x="440" y="160" width="120" height="40" as="geometry" />
        </mxCell>
        <mxCell id="5dzbz2AhqvXr-jBQKXv9-20" value="" style="edgeStyle=orthogonalEdgeStyle;rounded=0;orthogonalLoop=1;jettySize=auto;html=1;endArrow=block;endFill=0;" edge="1" parent="WIyWlLk6GJQsqaUBKTNV-1" source="5dzbz2AhqvXr-jBQKXv9-21" target="5dzbz2AhqvXr-jBQKXv9-28">
          <mxGeometry relative="1" as="geometry" />
        </mxCell>
        <mxCell id="5dzbz2AhqvXr-jBQKXv9-21" value="存在的记录对比当前告警信息，选出不同的信息" style="rounded=1;whiteSpace=wrap;html=1;fontSize=12;glass=0;strokeWidth=1;shadow=0;align=left;" vertex="1" parent="WIyWlLk6GJQsqaUBKTNV-1">
          <mxGeometry x="440" y="420" width="120" height="40" as="geometry" />
        </mxCell>
        <mxCell id="5dzbz2AhqvXr-jBQKXv9-22" style="edgeStyle=orthogonalEdgeStyle;rounded=0;orthogonalLoop=1;jettySize=auto;html=1;entryX=1;entryY=0.5;entryDx=0;entryDy=0;fontSize=12;endArrow=block;endFill=0;exitX=0.5;exitY=1;exitDx=0;exitDy=0;" edge="1" parent="WIyWlLk6GJQsqaUBKTNV-1" source="5dzbz2AhqvXr-jBQKXv9-23" target="5dzbz2AhqvXr-jBQKXv9-44">
          <mxGeometry relative="1" as="geometry" />
        </mxCell>
        <mxCell id="5dzbz2AhqvXr-jBQKXv9-23" value="有新告警，进行新增记录" style="rounded=1;whiteSpace=wrap;html=1;fontSize=12;glass=0;strokeWidth=1;shadow=0;align=left;" vertex="1" parent="WIyWlLk6GJQsqaUBKTNV-1">
          <mxGeometry x="690" y="840" width="120" height="40" as="geometry" />
        </mxCell>
        <mxCell id="5dzbz2AhqvXr-jBQKXv9-24" style="edgeStyle=orthogonalEdgeStyle;rounded=0;orthogonalLoop=1;jettySize=auto;html=1;entryX=0.5;entryY=0;entryDx=0;entryDy=0;endArrow=block;endFill=0;" edge="1" parent="WIyWlLk6GJQsqaUBKTNV-1" source="5dzbz2AhqvXr-jBQKXv9-28" target="5dzbz2AhqvXr-jBQKXv9-35">
          <mxGeometry relative="1" as="geometry" />
        </mxCell>
        <mxCell id="5dzbz2AhqvXr-jBQKXv9-25" value="Yes" style="edgeLabel;html=1;align=center;verticalAlign=middle;resizable=0;points=[];" vertex="1" connectable="0" parent="5dzbz2AhqvXr-jBQKXv9-24">
          <mxGeometry x="-0.0789" relative="1" as="geometry">
            <mxPoint x="-20" y="7" as="offset" />
          </mxGeometry>
        </mxCell>
        <mxCell id="5dzbz2AhqvXr-jBQKXv9-26" style="edgeStyle=orthogonalEdgeStyle;rounded=0;orthogonalLoop=1;jettySize=auto;html=1;entryX=0.5;entryY=0;entryDx=0;entryDy=0;endArrow=block;endFill=0;exitX=0.5;exitY=1;exitDx=0;exitDy=0;" edge="1" parent="WIyWlLk6GJQsqaUBKTNV-1" source="5dzbz2AhqvXr-jBQKXv9-28" target="5dzbz2AhqvXr-jBQKXv9-33">
          <mxGeometry relative="1" as="geometry">
            <Array as="points">
              <mxPoint x="710" y="500" />
              <mxPoint x="710" y="500" />
            </Array>
          </mxGeometry>
        </mxCell>
        <mxCell id="5dzbz2AhqvXr-jBQKXv9-27" value="No" style="edgeLabel;html=1;align=center;verticalAlign=middle;resizable=0;points=[];" vertex="1" connectable="0" parent="5dzbz2AhqvXr-jBQKXv9-26">
          <mxGeometry x="0.1333" y="-1" relative="1" as="geometry">
            <mxPoint x="11" y="-2" as="offset" />
          </mxGeometry>
        </mxCell>
        <mxCell id="5dzbz2AhqvXr-jBQKXv9-28" value="配对记录是否相同" style="rhombus;whiteSpace=wrap;html=1;shadow=0;fontFamily=Helvetica;fontSize=12;align=left;strokeWidth=1;spacing=6;spacingTop=-4;" vertex="1" parent="WIyWlLk6GJQsqaUBKTNV-1">
          <mxGeometry x="660" y="400" width="100" height="80" as="geometry" />
        </mxCell>
        <mxCell id="5dzbz2AhqvXr-jBQKXv9-29" style="edgeStyle=orthogonalEdgeStyle;rounded=0;orthogonalLoop=1;jettySize=auto;html=1;entryX=0.5;entryY=0;entryDx=0;entryDy=0;endArrow=block;endFill=0;" edge="1" parent="WIyWlLk6GJQsqaUBKTNV-1" target="5dzbz2AhqvXr-jBQKXv9-23">
          <mxGeometry relative="1" as="geometry">
            <mxPoint x="750" y="600" as="sourcePoint" />
            <Array as="points">
              <mxPoint x="750" y="600" />
            </Array>
          </mxGeometry>
        </mxCell>
        <mxCell id="5dzbz2AhqvXr-jBQKXv9-30" value="第2种情况" style="edgeLabel;html=1;align=center;verticalAlign=middle;resizable=0;points=[];" vertex="1" connectable="0" parent="5dzbz2AhqvXr-jBQKXv9-29">
          <mxGeometry x="-0.5028" relative="1" as="geometry">
            <mxPoint x="-10" y="39" as="offset" />
          </mxGeometry>
        </mxCell>
        <mxCell id="5dzbz2AhqvXr-jBQKXv9-31" style="edgeStyle=orthogonalEdgeStyle;rounded=0;orthogonalLoop=1;jettySize=auto;html=1;exitX=0.25;exitY=1;exitDx=0;exitDy=0;endArrow=block;endFill=0;entryX=1;entryY=0.5;entryDx=0;entryDy=0;" edge="1" parent="WIyWlLk6GJQsqaUBKTNV-1">
          <mxGeometry relative="1" as="geometry">
            <mxPoint x="610" y="860" as="targetPoint" />
            <Array as="points">
              <mxPoint x="680" y="860" />
            </Array>
            <mxPoint x="680" y="600" as="sourcePoint" />
          </mxGeometry>
        </mxCell>
        <mxCell id="5dzbz2AhqvXr-jBQKXv9-32" value="第1种情况" style="edgeLabel;html=1;align=center;verticalAlign=middle;resizable=0;points=[];" vertex="1" connectable="0" parent="5dzbz2AhqvXr-jBQKXv9-31">
          <mxGeometry x="-0.3263" y="1" relative="1" as="geometry">
            <mxPoint x="9" y="3" as="offset" />
          </mxGeometry>
        </mxCell>
        <mxCell id="5dzbz2AhqvXr-jBQKXv9-33" value="不同信息分两种情况&lt;br&gt;1.历史信息当前告警不存在，说明已经修复&lt;br&gt;2.当前告警有新增" style="rounded=1;whiteSpace=wrap;html=1;fontSize=12;glass=0;strokeWidth=1;shadow=0;align=left;" vertex="1" parent="WIyWlLk6GJQsqaUBKTNV-1">
          <mxGeometry x="650" y="560" width="120" height="40" as="geometry" />
        </mxCell>
        <mxCell id="5dzbz2AhqvXr-jBQKXv9-34" style="edgeStyle=orthogonalEdgeStyle;rounded=0;orthogonalLoop=1;jettySize=auto;html=1;entryX=0.5;entryY=1;entryDx=0;entryDy=0;fontSize=12;endArrow=block;endFill=0;" edge="1" parent="WIyWlLk6GJQsqaUBKTNV-1" source="5dzbz2AhqvXr-jBQKXv9-35" target="5dzbz2AhqvXr-jBQKXv9-44">
          <mxGeometry relative="1" as="geometry">
            <Array as="points">
              <mxPoint x="900" y="1050" />
              <mxPoint x="550" y="1050" />
            </Array>
          </mxGeometry>
        </mxCell>
        <mxCell id="5dzbz2AhqvXr-jBQKXv9-35" value="匹配的告警信息，更新duration和dateDay值" style="rounded=1;whiteSpace=wrap;html=1;fontSize=12;glass=0;strokeWidth=1;shadow=0;align=left;" vertex="1" parent="WIyWlLk6GJQsqaUBKTNV-1">
          <mxGeometry x="840" y="840" width="120" height="40" as="geometry" />
        </mxCell>
        <mxCell id="5dzbz2AhqvXr-jBQKXv9-36" style="edgeStyle=orthogonalEdgeStyle;rounded=0;orthogonalLoop=1;jettySize=auto;html=1;fontSize=12;endArrow=block;endFill=0;entryX=0.5;entryY=0;entryDx=0;entryDy=0;" edge="1" parent="WIyWlLk6GJQsqaUBKTNV-1" source="5dzbz2AhqvXr-jBQKXv9-37" target="5dzbz2AhqvXr-jBQKXv9-44">
          <mxGeometry relative="1" as="geometry">
            <mxPoint x="600" y="960" as="targetPoint" />
          </mxGeometry>
        </mxCell>
        <mxCell id="5dzbz2AhqvXr-jBQKXv9-37" value="&lt;font style=&quot;font-size: 12px;&quot;&gt;更新历史告警信息runningStatus&lt;br style=&quot;font-size: 12px;&quot;&gt;disposeStatus&lt;br style=&quot;font-size: 12px;&quot;&gt;recoverTime&lt;br style=&quot;font-size: 12px;&quot;&gt;duration&lt;br style=&quot;font-size: 12px;&quot;&gt;dateDay&lt;/font&gt;" style="rounded=1;whiteSpace=wrap;html=1;fontSize=12;glass=0;strokeWidth=1;shadow=0;align=left;" vertex="1" parent="WIyWlLk6GJQsqaUBKTNV-1">
          <mxGeometry x="490" y="840" width="120" height="40" as="geometry" />
        </mxCell>
        <mxCell id="5dzbz2AhqvXr-jBQKXv9-42" value="" style="edgeStyle=orthogonalEdgeStyle;rounded=0;orthogonalLoop=1;jettySize=auto;html=1;fontSize=12;endArrow=block;endFill=0;" edge="1" parent="WIyWlLk6GJQsqaUBKTNV-1" source="5dzbz2AhqvXr-jBQKXv9-43" target="5dzbz2AhqvXr-jBQKXv9-44">
          <mxGeometry relative="1" as="geometry">
            <Array as="points">
              <mxPoint x="480" y="860" />
              <mxPoint x="480" y="990" />
            </Array>
          </mxGeometry>
        </mxCell>
        <mxCell id="5dzbz2AhqvXr-jBQKXv9-43" value="新加巡检状态&lt;br&gt;runningStatus = 1&lt;br&gt;dateDay" style="rounded=1;whiteSpace=wrap;html=1;fontSize=12;glass=0;strokeWidth=1;shadow=0;align=left;" vertex="1" parent="WIyWlLk6GJQsqaUBKTNV-1">
          <mxGeometry x="280" y="840" width="120" height="40" as="geometry" />
        </mxCell>
        <mxCell id="5dzbz2AhqvXr-jBQKXv9-44" value="&amp;nbsp; &amp;nbsp; &amp;nbsp; &amp;nbsp; 结束" style="rhombus;whiteSpace=wrap;html=1;align=left;rounded=1;glass=0;strokeWidth=1;shadow=0;" vertex="1" parent="WIyWlLk6GJQsqaUBKTNV-1">
          <mxGeometry x="510" y="950" width="80" height="80" as="geometry" />
        </mxCell>
        <mxCell id="5dzbz2AhqvXr-jBQKXv9-45" value="Yes" style="edgeStyle=orthogonalEdgeStyle;rounded=0;orthogonalLoop=1;jettySize=auto;html=1;fontSize=12;endArrow=block;endFill=0;" edge="1" parent="WIyWlLk6GJQsqaUBKTNV-1" source="5dzbz2AhqvXr-jBQKXv9-48" target="5dzbz2AhqvXr-jBQKXv9-21">
          <mxGeometry x="0.2" y="10" relative="1" as="geometry">
            <mxPoint as="offset" />
          </mxGeometry>
        </mxCell>
        <mxCell id="5dzbz2AhqvXr-jBQKXv9-46" style="edgeStyle=orthogonalEdgeStyle;rounded=0;orthogonalLoop=1;jettySize=auto;html=1;fontSize=12;endArrow=block;endFill=0;entryX=0.45;entryY=-0.1;entryDx=0;entryDy=0;exitX=0.5;exitY=1;exitDx=0;exitDy=0;fontColor=#FF0000;strokeColor=#FF0000;entryPerimeter=0;" edge="1" parent="WIyWlLk6GJQsqaUBKTNV-1" source="5dzbz2AhqvXr-jBQKXv9-48" target="5dzbz2AhqvXr-jBQKXv9-37">
          <mxGeometry relative="1" as="geometry">
            <mxPoint x="620" y="723.6363636363636" as="targetPoint" />
            <Array as="points">
              <mxPoint x="340" y="510" />
              <mxPoint x="544" y="510" />
            </Array>
          </mxGeometry>
        </mxCell>
        <mxCell id="5dzbz2AhqvXr-jBQKXv9-47" value="No" style="edgeLabel;html=1;align=center;verticalAlign=middle;resizable=0;points=[];fontSize=12;fontColor=#FF0000;" vertex="1" connectable="0" parent="5dzbz2AhqvXr-jBQKXv9-46">
          <mxGeometry x="-0.6002" y="4" relative="1" as="geometry">
            <mxPoint y="-6" as="offset" />
          </mxGeometry>
        </mxCell>
        <mxCell id="5dzbz2AhqvXr-jBQKXv9-48" value="当前告警是否有此ip" style="rhombus;whiteSpace=wrap;html=1;shadow=0;fontFamily=Helvetica;fontSize=12;align=center;strokeWidth=1;spacing=6;spacingTop=-4;" vertex="1" parent="WIyWlLk6GJQsqaUBKTNV-1">
          <mxGeometry x="290" y="400" width="100" height="80" as="geometry" />
        </mxCell>
      </root>
    </mxGraphModel>
  </diagram>
</mxfile>
